<svg width="210" height="60" viewBox="0 0 210 60" fill="none" xmlns="http://www.w3.org/2000/svg">
<path opacity="0.5" d="M63.9844 0.405338L48.3256 55.25C48.246 55.499 47.9275 55.5737 47.7417 55.3994L37.2583 45.5657L45.1143 18.0811C45.1939 17.8322 44.955 17.6081 44.6896 17.6828L15.389 25.0518L4.95868 15.2679C4.7729 15.0937 4.85252 14.7949 5.11792 14.7202L63.5598 0.00701087C63.8252 -0.04278 64.0641 0.181279 63.9844 0.405338Z" fill="#00B37E"/>
<path opacity="0.5" d="M37.2578 45.5652L33.2236 59.7557C33.144 60.0046 32.8255 60.0793 32.6397 59.905L0.101251 29.4081C-0.0845318 29.2338 -0.00491108 28.9351 0.260493 28.8604L15.3885 25.0514L37.2578 45.5652Z" fill="#00B37E"/>
<path d="M45.1129 18.0806L37.257 45.5652L15.3877 25.0514L44.6883 17.6823C44.9537 17.6076 45.1926 17.8317 45.1129 18.0806Z" fill="#00B37E"/>
<path d="M85.7002 20.5156V39H81.9043V20.5156H85.7002ZM97.7354 25.2637H101.049V38.543C101.049 39.7956 100.77 40.8577 100.211 41.7295C99.6608 42.6097 98.8906 43.2741 97.9004 43.7227C96.9102 44.1797 95.7591 44.4082 94.4473 44.4082C93.8717 44.4082 93.2624 44.332 92.6191 44.1797C91.9844 44.0273 91.375 43.7904 90.791 43.4688C90.2155 43.1471 89.7331 42.7409 89.3438 42.25L90.9561 40.0918C91.3792 40.5827 91.8701 40.9635 92.4287 41.2344C92.9873 41.5137 93.6051 41.6533 94.2822 41.6533C94.9424 41.6533 95.501 41.5306 95.958 41.2852C96.415 41.0482 96.7663 40.6969 97.0117 40.2314C97.2572 39.7744 97.3799 39.2201 97.3799 38.5684V28.4375L97.7354 25.2637ZM88.4932 32.2969V32.0303C88.4932 30.9808 88.6201 30.0286 88.874 29.1738C89.1364 28.3105 89.5046 27.57 89.9785 26.9521C90.4609 26.3343 91.0449 25.8561 91.7305 25.5176C92.416 25.179 93.1904 25.0098 94.0537 25.0098C94.9678 25.0098 95.7337 25.179 96.3516 25.5176C96.9694 25.8561 97.4772 26.3385 97.875 26.9648C98.2728 27.5827 98.5817 28.3148 98.8018 29.1611C99.0303 29.999 99.208 30.9173 99.335 31.916V32.5C99.208 33.4564 99.0176 34.3451 98.7637 35.166C98.5098 35.987 98.1755 36.7064 97.7607 37.3242C97.346 37.9336 96.8298 38.4076 96.2119 38.7461C95.6025 39.0846 94.8747 39.2539 94.0283 39.2539C93.182 39.2539 92.416 39.0804 91.7305 38.7334C91.0534 38.3864 90.4736 37.8997 89.9912 37.2734C89.5088 36.6471 89.1364 35.9108 88.874 35.0645C88.6201 34.2181 88.4932 33.2956 88.4932 32.2969ZM92.1494 32.0303V32.2969C92.1494 32.8639 92.2044 33.3929 92.3145 33.8838C92.4245 34.3747 92.5938 34.8105 92.8223 35.1914C93.0592 35.5638 93.3512 35.8558 93.6982 36.0674C94.0537 36.2705 94.4727 36.3721 94.9551 36.3721C95.6237 36.3721 96.1696 36.2324 96.5928 35.9531C97.016 35.6654 97.3333 35.2718 97.5449 34.7725C97.7565 34.2731 97.8792 33.6976 97.9131 33.0459V31.3828C97.8962 30.8496 97.8242 30.3714 97.6973 29.9482C97.5703 29.5166 97.3926 29.1484 97.1641 28.8438C96.9355 28.5391 96.6393 28.3021 96.2754 28.1328C95.9115 27.9635 95.4798 27.8789 94.9805 27.8789C94.498 27.8789 94.0791 27.9889 93.7236 28.209C93.3766 28.4206 93.0846 28.7126 92.8477 29.085C92.6191 29.4574 92.4456 29.8975 92.3271 30.4053C92.2087 30.9046 92.1494 31.4463 92.1494 32.0303ZM107.473 28.1963V39H103.816V25.2637H107.244L107.473 28.1963ZM106.939 31.6494H105.949C105.949 30.6338 106.08 29.7197 106.343 28.9072C106.605 28.0863 106.973 27.388 107.447 26.8125C107.921 26.2285 108.484 25.7842 109.136 25.4795C109.796 25.1663 110.532 25.0098 111.345 25.0098C111.988 25.0098 112.576 25.1029 113.109 25.2891C113.643 25.4753 114.1 25.7715 114.48 26.1777C114.87 26.584 115.166 27.1214 115.369 27.79C115.581 28.4587 115.687 29.2754 115.687 30.2402V39H112.005V30.2275C112.005 29.6182 111.92 29.1442 111.751 28.8057C111.582 28.4671 111.332 28.2301 111.002 28.0947C110.68 27.9508 110.283 27.8789 109.809 27.8789C109.318 27.8789 108.89 27.9762 108.526 28.1709C108.171 28.3656 107.875 28.6364 107.638 28.9834C107.409 29.3219 107.236 29.7197 107.117 30.1768C106.999 30.6338 106.939 31.1247 106.939 31.6494ZM122.326 25.2637V39H118.657V25.2637H122.326ZM118.429 21.6836C118.429 21.1504 118.615 20.7103 118.987 20.3633C119.36 20.0163 119.859 19.8428 120.485 19.8428C121.103 19.8428 121.598 20.0163 121.971 20.3633C122.352 20.7103 122.542 21.1504 122.542 21.6836C122.542 22.2168 122.352 22.6569 121.971 23.0039C121.598 23.3509 121.103 23.5244 120.485 23.5244C119.859 23.5244 119.36 23.3509 118.987 23.0039C118.615 22.6569 118.429 22.2168 118.429 21.6836ZM132.076 25.2637V27.8535H124.078V25.2637H132.076ZM126.059 21.874H129.715V34.8613C129.715 35.2591 129.766 35.5638 129.867 35.7754C129.977 35.987 130.138 36.1351 130.35 36.2197C130.561 36.2959 130.828 36.334 131.149 36.334C131.378 36.334 131.581 36.3255 131.759 36.3086C131.945 36.2832 132.102 36.2578 132.229 36.2324L132.241 38.9238C131.928 39.0254 131.59 39.1058 131.226 39.165C130.862 39.2243 130.46 39.2539 130.02 39.2539C129.215 39.2539 128.513 39.1227 127.912 38.8604C127.32 38.5895 126.863 38.1579 126.541 37.5654C126.219 36.973 126.059 36.1943 126.059 35.2295V21.874ZM140.48 39.2539C139.414 39.2539 138.458 39.0846 137.611 38.7461C136.765 38.3991 136.046 37.9209 135.453 37.3115C134.869 36.7021 134.421 35.9954 134.107 35.1914C133.794 34.3789 133.638 33.5156 133.638 32.6016V32.0938C133.638 31.0527 133.786 30.1006 134.082 29.2373C134.378 28.374 134.801 27.625 135.352 26.9902C135.91 26.3555 136.587 25.8688 137.383 25.5303C138.178 25.1833 139.076 25.0098 140.074 25.0098C141.048 25.0098 141.911 25.1706 142.664 25.4922C143.417 25.8138 144.048 26.2708 144.556 26.8633C145.072 27.4557 145.461 28.1667 145.724 28.9961C145.986 29.8171 146.117 30.7311 146.117 31.7383V33.2617H135.199V30.8242H142.524V30.5449C142.524 30.0371 142.431 29.5843 142.245 29.1865C142.067 28.7803 141.797 28.4587 141.433 28.2217C141.069 27.9847 140.603 27.8662 140.036 27.8662C139.554 27.8662 139.139 27.972 138.792 28.1836C138.445 28.3952 138.161 28.6914 137.941 29.0723C137.73 29.4531 137.569 29.9017 137.459 30.418C137.357 30.9258 137.307 31.4844 137.307 32.0938V32.6016C137.307 33.1517 137.383 33.6595 137.535 34.125C137.696 34.5905 137.92 34.9925 138.208 35.3311C138.504 35.6696 138.86 35.932 139.274 36.1182C139.698 36.3044 140.176 36.3975 140.709 36.3975C141.369 36.3975 141.983 36.2705 142.55 36.0166C143.125 35.7542 143.62 35.3607 144.035 34.8359L145.812 36.7656C145.525 37.1803 145.131 37.5781 144.632 37.959C144.141 38.3398 143.549 38.653 142.854 38.8984C142.16 39.1354 141.369 39.2539 140.48 39.2539ZM158.711 20.5156V39H154.902V20.5156H158.711ZM166.074 28.4121V31.3828H157.67V28.4121H166.074ZM166.963 20.5156V23.499H157.67V20.5156H166.963ZM174.986 39.2539C173.92 39.2539 172.964 39.0846 172.117 38.7461C171.271 38.3991 170.551 37.9209 169.959 37.3115C169.375 36.7021 168.926 35.9954 168.613 35.1914C168.3 34.3789 168.144 33.5156 168.144 32.6016V32.0938C168.144 31.0527 168.292 30.1006 168.588 29.2373C168.884 28.374 169.307 27.625 169.857 26.9902C170.416 26.3555 171.093 25.8688 171.889 25.5303C172.684 25.1833 173.581 25.0098 174.58 25.0098C175.553 25.0098 176.417 25.1706 177.17 25.4922C177.923 25.8138 178.554 26.2708 179.062 26.8633C179.578 27.4557 179.967 28.1667 180.229 28.9961C180.492 29.8171 180.623 30.7311 180.623 31.7383V33.2617H169.705V30.8242H177.03V30.5449C177.03 30.0371 176.937 29.5843 176.751 29.1865C176.573 28.7803 176.302 28.4587 175.938 28.2217C175.575 27.9847 175.109 27.8662 174.542 27.8662C174.06 27.8662 173.645 27.972 173.298 28.1836C172.951 28.3952 172.667 28.6914 172.447 29.0723C172.236 29.4531 172.075 29.9017 171.965 30.418C171.863 30.9258 171.812 31.4844 171.812 32.0938V32.6016C171.812 33.1517 171.889 33.6595 172.041 34.125C172.202 34.5905 172.426 34.9925 172.714 35.3311C173.01 35.6696 173.366 35.932 173.78 36.1182C174.203 36.3044 174.682 36.3975 175.215 36.3975C175.875 36.3975 176.489 36.2705 177.056 36.0166C177.631 35.7542 178.126 35.3607 178.541 34.8359L180.318 36.7656C180.031 37.1803 179.637 37.5781 179.138 37.959C178.647 38.3398 178.054 38.653 177.36 38.8984C176.666 39.1354 175.875 39.2539 174.986 39.2539ZM189.027 39.2539C187.961 39.2539 187.005 39.0846 186.158 38.7461C185.312 38.3991 184.592 37.9209 184 37.3115C183.416 36.7021 182.967 35.9954 182.654 35.1914C182.341 34.3789 182.185 33.5156 182.185 32.6016V32.0938C182.185 31.0527 182.333 30.1006 182.629 29.2373C182.925 28.374 183.348 27.625 183.898 26.9902C184.457 26.3555 185.134 25.8688 185.93 25.5303C186.725 25.1833 187.622 25.0098 188.621 25.0098C189.594 25.0098 190.458 25.1706 191.211 25.4922C191.964 25.8138 192.595 26.2708 193.103 26.8633C193.619 27.4557 194.008 28.1667 194.271 28.9961C194.533 29.8171 194.664 30.7311 194.664 31.7383V33.2617H183.746V30.8242H191.071V30.5449C191.071 30.0371 190.978 29.5843 190.792 29.1865C190.614 28.7803 190.343 28.4587 189.979 28.2217C189.616 27.9847 189.15 27.8662 188.583 27.8662C188.101 27.8662 187.686 27.972 187.339 28.1836C186.992 28.3952 186.708 28.6914 186.488 29.0723C186.277 29.4531 186.116 29.9017 186.006 30.418C185.904 30.9258 185.854 31.4844 185.854 32.0938V32.6016C185.854 33.1517 185.93 33.6595 186.082 34.125C186.243 34.5905 186.467 34.9925 186.755 35.3311C187.051 35.6696 187.407 35.932 187.821 36.1182C188.244 36.3044 188.723 36.3975 189.256 36.3975C189.916 36.3975 190.53 36.2705 191.097 36.0166C191.672 35.7542 192.167 35.3607 192.582 34.8359L194.359 36.7656C194.072 37.1803 193.678 37.5781 193.179 37.959C192.688 38.3398 192.095 38.653 191.401 38.8984C190.707 39.1354 189.916 39.2539 189.027 39.2539ZM204.858 36.0039V19.5H208.54V39H205.227L204.858 36.0039ZM196.175 32.2969V32.0303C196.175 30.9808 196.293 30.0286 196.53 29.1738C196.767 28.3105 197.114 27.57 197.571 26.9521C198.028 26.3343 198.591 25.8561 199.26 25.5176C199.928 25.179 200.69 25.0098 201.545 25.0098C202.349 25.0098 203.051 25.179 203.652 25.5176C204.262 25.8561 204.778 26.3385 205.201 26.9648C205.633 27.5827 205.98 28.3148 206.242 29.1611C206.505 29.999 206.695 30.9173 206.813 31.916V32.5C206.695 33.4564 206.505 34.3451 206.242 35.166C205.98 35.987 205.633 36.7064 205.201 37.3242C204.778 37.9336 204.262 38.4076 203.652 38.7461C203.043 39.0846 202.332 39.2539 201.52 39.2539C200.665 39.2539 199.903 39.0804 199.234 38.7334C198.574 38.3864 198.016 37.8997 197.559 37.2734C197.11 36.6471 196.767 35.9108 196.53 35.0645C196.293 34.2181 196.175 33.2956 196.175 32.2969ZM199.831 32.0303V32.2969C199.831 32.8639 199.873 33.3929 199.958 33.8838C200.051 34.3747 200.199 34.8105 200.402 35.1914C200.614 35.5638 200.885 35.8558 201.215 36.0674C201.553 36.2705 201.964 36.3721 202.446 36.3721C203.073 36.3721 203.589 36.2324 203.995 35.9531C204.401 35.6654 204.71 35.2718 204.922 34.7725C205.142 34.2731 205.269 33.6976 205.303 33.0459V31.3828C205.277 30.8496 205.201 30.3714 205.074 29.9482C204.956 29.5166 204.778 29.1484 204.541 28.8438C204.312 28.5391 204.025 28.3021 203.678 28.1328C203.339 27.9635 202.937 27.8789 202.472 27.8789C201.998 27.8789 201.591 27.9889 201.253 28.209C200.914 28.4206 200.639 28.7126 200.428 29.085C200.225 29.4574 200.072 29.8975 199.971 30.4053C199.878 30.9046 199.831 31.4463 199.831 32.0303Z" fill="#E1E1E6"/>
</svg>
