<svg width="17" height="17" viewBox="0 0 17 17" fill="none" xmlns="http://www.w3.org/2000/svg">
<rect width="17" height="17" rx="2" fill="#202024"/>
<path opacity="0.5" d="M14.9969 2.08782L11.8162 13.9708C11.8 14.0248 11.7353 14.041 11.6976 14.0032L9.56812 11.8726L11.1639 5.91758C11.18 5.86364 11.1315 5.81509 11.0776 5.83127L5.12593 7.4279L3.00726 5.30805C2.96952 5.27029 2.9857 5.20556 3.03961 5.18938L14.9106 2.00152C14.9645 1.99073 15.013 2.03928 14.9969 2.08782Z" fill="#00B37E"/>
<path opacity="0.5" d="M9.56798 11.8725L8.74855 14.9471C8.73237 15.001 8.66768 15.0172 8.62994 14.9794L2.02057 8.37175C1.98283 8.33399 1.999 8.26926 2.05291 8.25308L5.12579 7.4278L9.56798 11.8725Z" fill="#00B37E"/>
<path d="M11.1634 5.91747L9.56768 11.8725L5.12549 7.42779L11.0772 5.83116C11.1311 5.81498 11.1796 5.86353 11.1634 5.91747Z" fill="#00B37E"/>
</svg>
