<svg width="64" height="60" viewBox="0 0 64 60" fill="none" xmlns="http://www.w3.org/2000/svg">
<path opacity="0.5" d="M63.9844 0.405338L48.3256 55.25C48.246 55.499 47.9275 55.5737 47.7417 55.3994L37.2583 45.5657L45.1143 18.0811C45.1939 17.8322 44.955 17.6081 44.6896 17.6828L15.389 25.0518L4.95868 15.2679C4.7729 15.0937 4.85252 14.7949 5.11792 14.7202L63.5598 0.00701087C63.8252 -0.04278 64.0641 0.181279 63.9844 0.405338Z" fill="#00B37E"/>
<path opacity="0.5" d="M37.2578 45.5652L33.2236 59.7557C33.144 60.0046 32.8255 60.0793 32.6397 59.905L0.101251 29.4081C-0.0845318 29.2338 -0.00491108 28.9351 0.260493 28.8604L15.3885 25.0514L37.2578 45.5652Z" fill="#00B37E"/>
<path d="M45.1129 18.0806L37.257 45.5652L15.3877 25.0514L44.6883 17.6823C44.9537 17.6076 45.1926 17.8317 45.1129 18.0806Z" fill="#00B37E"/>
</svg>
